Coordinates
version=1
nRows=22
nColumns=24
inDegrees=yes

Units are S.I. units (second, meters, Newtons, ...)
Angles are in degrees.

endheader
time	pelvis_tilt	pelvis_list	pelvis_rotation	pelvis_tx	pelvis_ty	pelvis_tz	hip_flexion_r	hip_adduction_r	hip_rotation_r	knee_angle_r	ankle_angle_r	subtalar_angle_r	mtp_angle_r	hip_flexion_l	hip_adduction_l	hip_rotation_l	knee_angle_l	ankle_angle_l	subtalar_angle_l	mtp_angle_l	lumbar_extension	lumbar_bending	lumbar_rotation
      0.94883333	      1.15471191	     -5.87351529	      0.16572135	     -0.17635662	      0.99762585	      0.29697393	    -12.42079966	     11.31974869	      4.06039818	     -7.24558788	      7.42692045	    -15.76793722	     -4.89326001	     21.42824033	     -4.42065874	     -1.17964598	     -6.30320394	     -3.99901246	     -5.26345494	      1.37485301	     -6.05136094	      9.37560281	      6.20211968
      0.95300000	      1.14852054	     -5.86537778	      0.15275856	     -0.17083494	      0.99700924	      0.29665847	    -12.45473136	     11.30758459	      4.07279730	     -7.83612297	      7.60760164	    -15.78051881	     -4.90027312	     21.31583728	     -4.35331431	     -1.14589283	     -6.15189347	     -4.14397713	     -5.13407608	      1.43863131	     -6.01811143	      9.36253485	      6.23998935
      0.95716667	      1.13122638	     -5.85240785	      0.14400264	     -0.16529187	      0.99642864	      0.29634958	    -12.44983251	     11.29239840	      4.08176211	     -8.47510444	      7.75557444	    -15.79642449	     -4.90320534	     21.21286432	     -4.28026823	     -1.08267222	     -6.07437348	     -4.30560452	     -5.04405679	      1.50666951	     -5.96915895	      9.33844424	      6.26760843
      0.96133333	      1.04452895	     -5.83415855	      0.13337496	     -0.15977027	      0.99578794	      0.29599699	    -12.30447120	     11.26325655	      4.01320778	     -9.23621553	      7.96411571	    -15.55330921	     -4.89999975	     21.18836747	     -4.19160552	     -0.93498757	     -6.07491647	     -4.50601040	     -5.11481374	      1.82993971	     -5.85385330	      9.32253673	      6.34094783
      0.96550000	      1.03366148	     -5.78708456	      0.13867868	     -0.15416043	      0.99533073	      0.29567511	    -12.25503569	     11.21610190	      4.01240596	     -9.97379426	      8.11833015	    -15.57307109	     -4.87832756	     21.05185107	     -4.07883053	     -0.80319669	     -6.08963479	     -4.72066337	     -5.11182756	      2.07840729	     -5.79430667	      9.25506766	      6.31302504
      0.96966667	      1.04116008	     -5.75080269	      0.16252246	     -0.14855104	      0.99495922	      0.29535341	    -12.19989510	     11.18499778	      3.97426815	    -10.73842393	      8.09620182	    -15.65459681	     -4.86731992	     20.92638704	     -3.97824714	     -0.70903022	     -6.21933845	     -4.94955917	     -5.08324780	      2.15506639	     -5.76446102	      9.19197973	      6.30355718
      0.97383333	      0.94962657	     -5.70418920	      0.17230283	     -0.14294809	      0.99449333	      0.29498355	    -11.96845444	     11.13310444	      3.90008474	    -11.64601833	      8.23232540	    -15.51019110	     -4.78854416	     20.87330156	     -3.85401361	     -0.46372079	     -6.33773857	     -5.22824439	     -5.30649300	      2.45233763	     -5.61473074	      9.13809020	      6.28698593
      0.97800000	      0.95680501	     -5.63714008	      0.21733381	     -0.13729944	      0.99420703	      0.29460216	    -11.83095985	     11.06179074	      3.75306242	    -12.55318790	      8.20215532	    -15.38388791	     -3.49253450	     20.74139722	     -3.71373320	     -0.33399837	     -6.54891525	     -5.53901068	     -5.40066979	      6.01949956	     -5.58485991	      9.04679496	      6.26547452
      0.98216667	      0.93594078	     -5.55736727	      0.24785875	     -0.13162831	      0.99397525	      0.29426564	    -11.64298168	     10.98533077	      3.68335779	    -13.50189901	      8.14134401	    -15.46752987	     -3.46178447	     20.61806267	     -3.56478870	     -0.16907636	     -6.77473039	     -5.82067799	     -5.52558334	      6.02794216	     -5.52009167	      8.92661228	      6.22231094
      0.98633333	      0.86848085	     -5.50202806	      0.27855945	     -0.12596950	      0.99371267	      0.29386837	    -11.33695706	     10.92211853	      3.53198456	    -14.56967909	      8.08094548	    -15.31810540	     -3.35820791	     20.53169964	     -3.43053067	      0.08743996	     -7.00434649	     -6.10418445	     -5.82445888	      6.07081254	     -5.38304708	      8.86706869	      6.15262261
      0.99050000	      0.82971593	     -5.41868762	      0.32591512	     -0.12028414	      0.99354615	      0.29347306	    -11.03136746	     10.82999541	      3.33827270	    -15.68186841	      7.94905456	    -15.18931937	     -3.21747143	     20.41877434	     -3.27015250	      0.29899540	     -7.27244657	     -6.36834847	     -6.04792036	      6.13082518	     -5.27919220	      8.75194402	      6.08193409
      0.99466667	      0.79723602	     -5.32575926	      0.37944004	     -0.11459824	      0.99343772	      0.29305286	    -10.69052046	     10.72165152	      3.10916851	    -16.85710379	      7.75420786	    -15.02161967	     -3.02243704	     20.29984542	     -3.09825624	      0.50889089	     -7.56689685	     -6.62341877	     -6.30498567	      6.20796671	     -5.18559578	      8.63151638	      5.99997191
      0.99883333	      0.82152530	     -5.20294380	      0.46153795	     -0.10889129	      0.99344361	      0.29255583	    -10.36693214	     10.56314746	      2.75267508	    -18.09023297	      7.48775885	    -14.61602595	     -2.02139089	     20.10984124	     -2.88589768	      0.73131203	     -7.85817882	     -6.91557478	     -6.61456954	      6.56103710	     -5.16931377	      8.47760680	      5.88033624
      1.00300000	      0.70750400	     -5.12775672	      0.50059694	     -0.10322113	      0.99332912	      0.29217751	     -9.85390686	     10.47672613	      2.56270220	    -19.39698720	      7.13664211	    -14.66844541	     -1.79466265	     20.10110367	     -2.74324877	      0.89549181	     -8.23774800	     -7.05526078	     -6.83423848	      6.62713634	     -4.96813457	      8.37220020	      5.81134686
      1.00716667	      0.67072662	     -5.01194098	      0.57114872	     -0.09756186	      0.99334280	      0.29169580	     -9.37053067	     10.32114183	      2.22407739	    -20.77594217	      6.74340043	    -14.38232638	     -1.37937414	     19.99788532	     -2.54402700	      1.09152155	     -8.60206980	     -7.24761364	     -7.17759391	      6.72782941	     -4.87968557	      8.22401198	      5.67628128
      1.01133333	      0.62394971	     -4.88129278	      0.63989779	     -0.09189292	      0.99340214	      0.29121680	     -8.83226608	     10.14058199	      1.86105243	    -22.21574882	      6.24684541	    -14.12708185	     -0.87970226	     19.89379984	     -2.33372856	      1.27364054	     -8.95904936	     -7.39001410	     -7.46217101	      6.82980147	     -4.76826474	      8.06081390	      5.55479245
      1.01550000	      0.63453776	     -4.72445592	      0.72170027	     -0.08620118	      0.99357569	      0.29070227	     -8.32611290	      9.91406220	      1.43845523	    -23.66986657	      5.49702681	    -14.04139927	      6.65517607	     19.70990543	     -2.09635941	      1.45266377	     -9.29462959	     -7.45792941	     -7.71856952	      8.02471145	     -4.72351377	      7.86057291	      5.48400922
      1.01966667	      0.57599455	     -4.58027604	      0.78229200	     -0.08056969	      0.99369605	      0.29023534	     -7.68842573	      9.70211046	      1.06780964	    -25.22755444	      4.82947852	    -13.83698435	      6.73530015	     19.62463511	     -1.88212489	      1.57150549	     -9.68197098	     -7.51203840	     -7.93441097	      8.00272142	     -4.60404351	      7.67734979	      5.31061999
      1.02383333	      0.55028165	     -4.39490656	      0.84550603	     -0.07494181	      0.99389735	      0.28972288	     -7.04061391	      9.42186072	      0.64074275	    -26.84937170	      4.10207609	    -13.52719510	      6.96391580	     19.47490583	     -1.62001955	      1.72514892	    -10.02750119	     -7.49183188	     -8.21248430	      7.97235447	     -4.52285455	      7.44865410	      5.14865640
      1.02800000	      0.50003774	     -4.23038523	      0.92742228	     -0.06935782	      0.99408342	      0.28920915	     -6.33186148	      9.16027276	      0.20322752	    -28.49392579	      3.20431135	    -13.30037489	      7.18578184	     19.37993563	     -1.38009842	      1.86013425	    -10.42345940	     -7.44815502	     -8.41225455	      7.95121368	     -4.42227530	      7.24651563	      5.02182990
      1.03216667	      0.48153528	     -4.01437724	      0.98261845	     -0.06378419	      0.99433804	      0.28867927	     -5.61022968	      8.81518841	     -0.24141397	    -30.21774365	      2.32048830	    -12.96550111	      7.67371711	     19.20858766	     -1.08966503	      1.99843126	    -10.75681527	     -7.30507288	     -8.68016498	      7.90901471	     -4.35499583	      6.98440170	      4.83146223
      1.03633333	      0.45890950	     -3.81409169	      1.06694194	     -0.05825308	      0.99461476	      0.28815275	     -4.86425583	      8.48646002	     -0.69820747	    -31.93032596	      1.21085097	    -12.78123935	      8.02638968	     19.06968842	     -0.81798970	      2.09943626	    -11.13317956	     -7.18970514	     -8.81833366	      7.88010416	     -4.29893767	      6.74057950	      4.71632434
